<svg xmlns="http://www.w3.org/2000/svg" xml:space="preserve" width="2000" height="123" viewBox="0 0 2000 123" data-version="1" data-id="lg_Hx7U4c5qy3ONm1csOn"><g id="outer-wrapper" data-padding="20" transform="matrix(1,0,0,1,0,0)"><g id="inner-wrapper" transform="matrix(0.964349376114082,0,0,0.964349376114082,10,2.1925133689839598)"><rect width="456.581" height="122.793" x="398.0808909426987" y="-400.1765" fill="none" rx="0" ry="0" transform="translate(452.21 400.28)"></rect><path fill="#5771ff" d="M876.0908909426987 95.14050000000003H858.7008909426987V15.810500000000047H876.0908909426987ZM908.5808909426987 95.14050000000003H873.9108909426988V80.36050000000006H908.5808909426987ZM906.0808909426987 62.220500000000015H873.9108909426988V47.44050000000004H906.0808909426987ZM907.8208909426987 30.59050000000002H873.9108909426988V15.810500000000047H907.8208909426987ZM950.6408909426987 95.14050000000003H933.8008909426987L915.9808909426988 35.59050000000002H933.9108909426988ZM956.7308909426987 95.14050000000003H939.2308909426987V80.69050000000004H956.7308909426987ZM961.4008909426987 95.14050000000003H945.6408909426987L960.1008909426987 35.59050000000002H976.8308909426987ZM1014.4208909426986 97.21050000000002Q1006.8108909426987 97.21050000000002 1001.0008909426987 94.60050000000001Q995.1808909426986 91.9905 991.3308909426987 87.59050000000002Q987.4708909426986 83.19050000000004 985.4608909426986 77.70050000000003T983.4508909426986 66.45050000000003V64.28050000000002Q983.4508909426986 58.3005 985.4608909426986 52.82050000000004Q987.4708909426986 47.33050000000003 991.2708909426987 42.98050000000006Q995.0808909426987 38.63050000000004 1000.7808909426986 36.080500000000086Q1006.4908909426986 33.530500000000075 1013.7708909426987 33.530500000000075Q1023.3308909426987 33.530500000000075 1029.9008909426987 37.820500000000095Q1036.4808909426986 42.110500000000116 1039.9608909426986 49.01050000000009Q1043.4308909426986 55.91050000000007 1043.4308909426986 64.0605000000001V69.93050000000011H990.7308909426987V60.04050000000012H1032.8908909426987L1027.2408909426988 64.61050000000012Q1027.2408909426988 59.28050000000013 1025.7208909426988 55.48050000000012Q1024.2008909426988 51.67050000000012 1021.2108909426988 49.66050000000013T1013.7708909426988 47.650500000000136Q1009.2008909426988 47.650500000000136 1006.0508909426987 49.72050000000013Q1002.9008909426988 51.78050000000013 1001.2708909426988 55.7505000000001T999.6408909426988 65.48050000000012Q999.6408909426988 70.80050000000011 1001.1608909426988 74.77050000000014Q1002.6808909426987 78.73050000000012 1005.9408909426987 80.91050000000013Q1009.2008909426987 83.08050000000014 1014.4208909426987 83.08050000000014Q1019.2008909426987 83.08050000000014 1022.2408909426988 81.23050000000012Q1025.2908909426988 79.3805000000001 1026.3708909426987 76.67050000000012H1042.3508909426987Q1041.0408909426988 82.64050000000015 1037.2408909426988 87.3205000000001Q1033.4408909426988 91.99050000000011 1027.6808909426986 94.60050000000007T1014.4208909426987 97.21050000000008M1072.3408909426987 95.14050000000009H1054.9508909426988V35.59050000000008H1068.7508909426988V61.1305000000001H1067.7708909426988Q1067.7708909426988 52.0005000000001 1070.1108909426987 45.92050000000012Q1072.4508909426986 39.83050000000014 1077.2308909426988 36.79050000000012Q1082.0108909426988 33.74050000000011 1088.8608909426987 33.74050000000011H1089.6208909426987Q1100.0508909426987 33.74050000000011 1105.5408909426988 40.54050000000012Q1111.0208909426988 47.33050000000014 1111.0208909426988 61.1305000000001V95.14050000000009H1093.6408909426987V60.15050000000008Q1093.6408909426987 55.370500000000106 1090.8108909426987 52.330500000000086Q1087.9908909426988 49.280500000000075 1083.2008909426988 49.280500000000075Q1078.3108909426987 49.280500000000075 1075.3308909426987 52.3805000000001Q1072.3408909426987 55.48050000000012 1072.3408909426987 60.48050000000012ZM1161.2308909426988 95.89050000000009H1152.8608909426987Q1143.8408909426987 95.89050000000009 1138.3008909426987 93.66050000000007Q1132.7608909426988 91.44050000000004 1130.2008909426986 86.17050000000006Q1127.6508909426987 80.90050000000008 1127.6508909426987 71.88050000000004V19.500500000000045H1143.8408909426987V72.53050000000007Q1143.8408909426987 76.77050000000008 1146.0708909426987 78.99050000000005Q1148.3008909426987 81.22050000000007 1152.4308909426989 81.22050000000007H1161.2308909426988ZM1161.2308909426988 48.300500000000056H1118.6308909426987V35.58050000000003H1161.2308909426988ZM1193.1808909426989 95.14050000000009H1175.8008909426987V35.59050000000008H1193.1808909426989ZM1193.1808909426989 48.41050000000007H1167.8708909426987V35.59050000000008H1193.1808909426986ZM1182.5408909426988 29.720500000000072Q1177.6508909426989 29.720500000000072 1175.3108909426987 27.17050000000006T1172.9708909426988 20.700500000000034Q1172.9708909426988 16.680500000000052 1175.3108909426987 14.13050000000004T1182.5408909426988 11.580500000000029T1189.7608909426988 14.13050000000004Q1192.100890942699 16.680500000000052 1192.100890942699 20.700500000000034Q1192.100890942699 24.62050000000005 1189.7608909426988 27.17050000000006Q1187.4308909426989 29.720500000000072 1182.5408909426988 29.720500000000072M1226.7508909426988 95.1305000000001H1210.5608909426987V35.040500000000065Q1210.5608909426987 24.720500000000072 1216.4308909426989 19.720500000000072T1233.7108909426988 14.720500000000072H1241.3108909426987V27.760500000000093H1232.9508909426988Q1230.0108909426988 27.760500000000093 1228.3808909426987 29.390500000000088T1226.7508909426988 33.95050000000009ZM1242.1808909426989 49.49050000000011H1203.5008909426988V36.78050000000013H1242.1808909426989ZM1260.7708909426988 118.71050000000014H1250.120890942699V103.93050000000017H1262.5008909426988Q1265.330890942699 103.93050000000017 1267.2908909426988 103.23050000000018Q1269.240890942699 102.5205000000002 1270.4408909426988 100.8905000000002Q1271.630890942699 99.2605000000002 1272.390890942699 96.44050000000021L1287.0608909426987 35.5805000000002H1303.5808909426987L1286.9508909426988 99.91050000000018Q1285.2208909426988 106.87050000000016 1282.1208909426987 111.00050000000016T1273.860890942699 116.92050000000017T1260.7708909426988 118.7105000000002M1281.4108909426986 93.8305000000002H1268.8108909426987V80.24050000000022H1281.4108909426986ZM1278.1508909426989 93.8305000000002H1261.630890942699L1243.3808909426987 35.5805000000002H1260.8708909426987Z " paint-order="stroke"></path><path fill="#5771ff" d="M820.0358909426988 43.75049999999999V88.03049999999996C820.0358909426988 93.83549999999997 815.3108909426987 98.42549999999994 809.6408909426988 98.42549999999994H756.7208909426987C750.9798909426987 98.42549999999994 746.3258909426987 93.77149999999995 746.3258909426987 88.03049999999996V43.75049999999999C746.3258909426987 37.94549999999998 751.0508909426987 33.355500000000006 756.7208909426987 33.355500000000006H760.2308909426987V43.480500000000006A7.56 7.56 0 0 0 775.3508909426987 43.480500000000006V33.355500000000006H791.8208909426987V43.480500000000006A7.56 7.56 0 1 0 806.9408909426987 43.480500000000006V33.355500000000006H809.7758909426988C815.3108909426987 33.355500000000006 820.0358909426988 37.94549999999998 820.0358909426988 43.75049999999999M816.9308909426987 52.390499999999975H749.4308909426987V88.03049999999996A7.26 7.26 0 0 0 756.7208909426987 95.32049999999998H809.6408909426988A7.26 7.26 0 0 0 816.9308909426987 88.03049999999996ZM767.7908909426988 48.07049999999998A4.55 4.55 0 0 0 772.3808909426987 43.480500000000006V28.22550000000001A4.55 4.55 0 0 0 767.7908909426988 23.635500000000036A4.55 4.55 0 0 0 763.2008909426987 28.22550000000001V43.480500000000006A4.55 4.55 0 0 0 767.7908909426988 48.07049999999998M799.3808909426987 48.07049999999998A4.55 4.55 0 0 0 803.9708909426987 43.480500000000006V28.22550000000001A4.55 4.55 0 0 0 799.3808909426987 23.635500000000036A4.55 4.55 0 0 0 794.7908909426988 28.22550000000001V43.480500000000006C794.6558909426988 46.045500000000004 796.8158909426987 48.07049999999998 799.3808909426987 48.07049999999998M800.0558909426987 62.1105C798.7058909426987 60.76049999999998 796.4108909426988 60.76049999999998 795.0608909426987 62.1105L778.5908909426987 78.44549999999998L771.3008909426987 71.15549999999996C769.9508909426987 69.80549999999994 767.6558909426988 69.80549999999994 766.3058909426987 71.15549999999996S764.9558909426987 74.80049999999994 766.3058909426987 76.15049999999997L776.0258909426988 85.87049999999999C776.7008909426987 86.5455 777.6458909426988 86.95049999999998 778.4558909426987 86.95049999999998S780.2108909426987 86.5455 780.8858909426988 85.87049999999999L799.7858909426988 66.97050000000002C801.4058909426988 65.62049999999999 801.4058909426988 63.460500000000025 800.0558909426987 62.1105 "></path></g><rect width="561" height="123" x="719.5" y="0" id="space-saver" fill="transparent" stroke="transparent"></rect></g></svg>