<svg xmlns="http://www.w3.org/2000/svg" xml:space="preserve" width="2000" height="359" viewBox="0 0 2000 359" data-version="1" data-id="lg_138FbmOiAYsREqwnE3"><g id="outer-wrapper" data-padding="20" transform="matrix(1,0,0,1,0,0)"><g id="inner-wrapper" transform="matrix(0.964349376114082,0,0,0.964349376114082,10,6.399286987522288)"><path fill="#48a4d9" d="M848.6778909426987 246.2439999999999A20.606 20.606 0 1 0 848.6778909426987 287.4559999999999A20.606 20.606 0 1 0 848.6778909426987 246.2439999999999M848.6778909426987 227.65799999999987A4.04 4.04 0 1 0 848.6778909426987 235.73799999999986A4.04 4.04 0 1 0 848.6778909426987 227.65799999999987M883.8288909426988 192.5059999999999A4.04 4.04 0 1 0 883.8288909426988 200.5869999999999A4.04 4.04 0 1 0 883.8288909426988 192.50699999999992M883.8288909426988 262.80899999999997A4.04 4.04 0 1 0 883.8288909426988 270.89A4.04 4.04 0 1 0 883.8288909426988 262.80999999999995M883.8288909426988 211.09199999999996A20.606 20.606 0 1 0 883.8288909426988 252.30399999999995A20.606 20.606 0 1 0 883.8288909426988 211.09199999999996M848.6778909426987 175.94099999999995A20.606 20.606 0 1 0 848.6778909426987 217.15299999999993A20.606 20.606 0 1 0 848.6778909426987 175.94099999999995M848.6778909426987 157.35499999999993A4.04 4.04 0 1 0 848.6778909426987 165.43499999999992A4.04 4.04 0 1 0 848.6778909426987 157.35499999999993M883.8288909426988 122.20299999999995A4.04 4.04 0 1 0 883.8288909426988 130.28399999999996A4.04 4.04 0 1 0 883.8288909426988 122.20399999999998M848.6778909426987 105.638A20.606 20.606 0 1 0 848.6778909426987 146.85A20.606 20.606 0 1 0 848.6778909426987 105.638M883.8288909426988 140.78900000000002A20.606 20.606 0 1 0 883.8288909426988 182.001A20.606 20.606 0 1 0 883.8288909426988 140.78900000000002M918.9808909426987 246.244A20.606 20.606 0 1 0 918.9808909426987 287.456A20.606 20.606 0 1 0 918.9808909426987 246.244M918.9808909426987 227.658A4.04 4.04 0 1 0 918.9808909426987 235.73799999999997A4.04 4.04 0 1 0 918.9808909426987 227.658M954.1318909426986 192.506A4.04 4.04 0 1 0 954.1318909426986 200.58700000000002A4.04 4.04 0 1 0 954.1318909426986 192.50700000000003M954.1318909426986 262.8090000000001A4.04 4.04 0 1 0 954.1318909426986 270.8900000000001A4.04 4.04 0 1 0 954.1318909426986 262.81000000000006M954.1318909426986 211.09200000000007A20.606 20.606 0 1 0 954.1318909426986 252.30400000000006A20.606 20.606 0 1 0 954.1318909426986 211.09200000000007M918.9808909426987 175.94100000000006A20.606 20.606 0 1 0 918.9808909426987 217.15300000000005A20.606 20.606 0 1 0 918.9808909426987 175.94100000000006M918.9808909426987 157.35500000000005A4.04 4.04 0 1 0 918.9808909426987 165.43500000000003A4.04 4.04 0 1 0 918.9808909426987 157.35500000000005M954.1318909426986 122.20300000000006A4.04 4.04 0 1 0 954.1318909426986 130.28400000000008A4.04 4.04 0 1 0 954.1318909426986 122.2040000000001M918.9808909426987 105.63800000000012A20.606 20.606 0 1 0 918.9808909426987 146.8500000000001A20.606 20.606 0 1 0 918.9808909426987 105.63800000000012M989.2838909426987 246.2440000000001A20.606 20.606 0 1 0 989.2838909426987 287.45600000000013A20.606 20.606 0 1 0 989.2838909426987 246.2440000000001M989.2838909426987 227.6580000000001A4.04 4.04 0 1 0 989.2838909426987 235.73800000000008A4.04 4.04 0 1 0 989.2838909426987 227.6580000000001M989.2838909426987 175.94100000000012A20.606 20.606 0 1 0 989.2838909426987 217.1530000000001A20.606 20.606 0 1 0 989.2838909426987 175.94100000000012M989.2838909426987 157.3550000000001A4.04 4.04 0 1 0 989.2838909426987 165.4350000000001A4.04 4.04 0 1 0 989.2838909426987 157.3550000000001M989.2838909426987 105.63800000000012A20.606 20.606 0 1 0 989.2838909426987 146.8500000000001A20.606 20.606 0 1 0 989.2838909426987 105.63800000000012M954.1318909426986 140.78900000000013A20.606 20.606 0 1 0 954.1318909426986 182.00100000000012A20.606 20.606 0 1 0 954.1318909426986 140.78900000000013 "></path><path fill="#48a4d9" d="M883.6988909426987 140.4379999999999A20.606 20.606 0 1 0 883.6988909426987 181.6499999999999A20.606 20.606 0 1 0 883.6988909426987 140.4379999999999M883.6988909426987 121.85199999999989A4.04 4.04 0 1 0 883.6988909426987 129.9329999999999A4.04 4.04 0 1 0 883.6988909426987 121.85299999999992M918.8488909426987 86.70099999999994A4.04 4.04 0 1 0 918.8488909426987 94.78099999999992A4.04 4.04 0 1 0 918.8488909426987 86.70099999999994M918.8488909426987 157.00399999999993A4.04 4.04 0 1 0 918.8488909426987 165.08399999999992A4.04 4.04 0 1 0 918.8488909426987 157.00399999999993M918.8488909426987 105.28699999999995A20.606 20.606 0 1 0 918.8488909426987 146.49899999999994A20.606 20.606 0 1 0 918.8488909426987 105.28699999999995M883.6988909426987 70.13499999999996A20.606 20.606 0 1 0 883.6988909426987 111.34699999999995A20.606 20.606 0 1 0 883.6988909426987 70.13499999999996M883.6988909426987 51.54999999999998A4.04 4.04 0 1 0 883.6988909426987 59.62999999999997A4.04 4.04 0 1 0 883.6988909426987 51.54999999999998M918.8488909426987 16.397999999999996A4.04 4.04 0 1 0 918.8488909426987 24.47800000000001A4.04 4.04 0 1 0 918.8488909426987 16.397999999999996M883.6988909426987 -0.16800000000000637A20.606 20.606 0 1 0 883.6988909426987 41.04400000000001A20.606 20.606 0 1 0 883.6988909426987 -0.16799999999997794M918.8488909426987 34.98400000000001A20.606 20.606 0 1 0 918.8488909426987 76.196A20.606 20.606 0 1 0 918.8488909426987 34.98400000000001M954.0008909426987 140.43800000000002A20.606 20.606 0 1 0 954.0008909426987 181.65A20.606 20.606 0 1 0 954.0008909426987 140.43800000000002M954.0008909426987 121.852A4.04 4.04 0 1 0 954.0008909426987 129.93300000000002A4.04 4.04 0 1 0 954.0008909426987 121.85300000000004M989.1528909426986 86.70100000000005A4.04 4.04 0 1 0 989.1528909426986 94.78100000000003A4.04 4.04 0 1 0 989.1528909426986 86.70100000000005M989.1528909426986 157.00400000000005A4.04 4.04 0 1 0 989.1528909426986 165.08400000000003A4.04 4.04 0 1 0 989.1528909426986 157.00400000000005M989.1528909426986 105.28700000000006A20.606 20.606 0 1 0 989.1528909426986 146.49900000000005A20.606 20.606 0 1 0 989.1528909426986 105.28700000000006M954.0008909426987 70.13500000000008A20.606 20.606 0 1 0 954.0008909426987 111.34700000000007A20.606 20.606 0 1 0 954.0008909426987 70.13500000000008M954.0008909426987 51.5500000000001A4.04 4.04 0 1 0 954.0008909426987 59.63000000000008A4.04 4.04 0 1 0 954.0008909426987 51.5500000000001M989.1528909426986 16.39800000000011A4.04 4.04 0 1 0 989.1528909426986 24.478000000000122A4.04 4.04 0 1 0 989.1528909426986 16.39800000000011M954.0008909426987 -0.16799999999989268A20.606 20.606 0 1 0 954.0008909426987 41.044000000000125A20.606 20.606 0 1 0 954.0008909426987 -0.16799999999986426M1024.3038909426987 140.43800000000013A20.606 20.606 0 1 0 1024.3038909426987 181.65000000000012A20.606 20.606 0 1 0 1024.3038909426987 140.43800000000013M1024.3038909426987 121.85200000000012A4.04 4.04 0 1 0 1024.3038909426987 129.93300000000013A4.04 4.04 0 1 0 1024.3038909426987 121.85300000000015M1024.3038909426987 70.13500000000013A20.606 20.606 0 1 0 1024.3038909426987 111.34700000000012A20.606 20.606 0 1 0 1024.3038909426987 70.13500000000013M1024.3038909426987 51.55000000000015A4.04 4.04 0 1 0 1024.3038909426987 59.63000000000014A4.04 4.04 0 1 0 1024.3038909426987 51.55000000000015M1024.3038909426987 -0.16799999999986426A20.606 20.606 0 1 0 1024.3038909426987 41.044000000000125A20.606 20.606 0 1 0 1024.3038909426987 -0.16799999999986426M989.1528909426986 34.98400000000012A20.606 20.606 0 1 0 989.1528909426986 76.19600000000011A20.606 20.606 0 1 0 989.1528909426986 34.98400000000012M989.4258909426987 246.3100000000001A20.606 20.606 0 1 0 989.4258909426987 287.52200000000005A20.606 20.606 0 1 0 989.4258909426987 246.3100000000001M989.4258909426987 227.7250000000001A4.04 4.04 0 1 0 989.4258909426987 235.8050000000001A4.04 4.04 0 1 0 989.4258909426987 227.7250000000001M1024.5768909426988 192.57300000000012A4.04 4.04 0 1 0 1024.5768909426988 200.6530000000001A4.04 4.04 0 1 0 1024.5768909426988 192.57300000000012M1024.5768909426988 262.8750000000001A4.04 4.04 0 1 0 1024.5768909426988 270.9570000000001A4.04 4.04 0 1 0 1024.5768909426988 262.8760000000001M1024.5768909426988 211.15900000000013A20.606 20.606 0 1 0 1024.5768909426988 252.37100000000012A20.606 20.606 0 1 0 1024.5768909426988 211.15900000000013M989.4258909426987 176.00700000000015A20.606 20.606 0 1 0 989.4258909426987 217.21900000000014A20.606 20.606 0 1 0 989.4258909426987 176.00700000000015 "></path><path fill="#48a4d9" d="M989.4258909426987 157.4209999999999A4.04 4.04 0 1 0 989.4258909426987 165.50199999999992A4.04 4.04 0 1 0 989.4258909426987 157.42199999999994M1024.5768909426988 122.26999999999995A4.04 4.04 0 1 0 1024.5768909426988 130.34999999999994A4.04 4.04 0 1 0 1024.5768909426988 122.26999999999995M989.4258909426987 105.70499999999996A20.606 20.606 0 1 0 989.4258909426987 146.91599999999997A20.606 20.606 0 1 0 989.4258909426987 105.70399999999998M1024.5768909426988 140.855A20.606 20.606 0 1 0 1024.5768909426988 182.068A20.606 20.606 0 1 0 1024.5768909426988 140.85600000000002M1059.7288909426989 246.31000000000003A20.606 20.606 0 1 0 1059.7288909426989 287.52200000000005A20.606 20.606 0 1 0 1059.7288909426989 246.31000000000003M1059.7288909426989 227.72500000000005A4.04 4.04 0 1 0 1059.7288909426989 235.80500000000004A4.04 4.04 0 1 0 1059.7288909426989 227.72500000000005M1094.8798909426987 192.57300000000006A4.04 4.04 0 1 0 1094.8798909426987 200.65300000000005A4.04 4.04 0 1 0 1094.8798909426987 192.57300000000006M1094.8798909426987 262.8750000000001A4.04 4.04 0 1 0 1094.8798909426987 270.9570000000001A4.04 4.04 0 1 0 1094.8798909426987 262.8760000000001M1094.8798909426987 211.15900000000008A20.606 20.606 0 1 0 1094.8798909426987 252.37100000000007A20.606 20.606 0 1 0 1094.8798909426987 211.15900000000008M1059.7288909426989 176.0070000000001A20.606 20.606 0 1 0 1059.7288909426989 217.21900000000008A20.606 20.606 0 1 0 1059.7288909426989 176.0070000000001M1059.7288909426989 157.42100000000008A4.04 4.04 0 1 0 1059.7288909426989 165.5020000000001A4.04 4.04 0 1 0 1059.7288909426989 157.4220000000001M1094.8798909426987 122.27000000000012A4.04 4.04 0 1 0 1094.8798909426987 130.3500000000001A4.04 4.04 0 1 0 1094.8798909426987 122.27000000000012M1059.7288909426989 105.7049999999999A20.606 20.606 0 1 0 1059.7288909426989 146.9159999999999A20.606 20.606 0 1 0 1059.7288909426989 105.70399999999992M1130.0318909426987 246.30999999999992A20.606 20.606 0 1 0 1130.0318909426987 287.52199999999993A20.606 20.606 0 1 0 1130.0318909426987 246.30999999999992M1130.0318909426987 227.72499999999994A4.04 4.04 0 1 0 1130.0318909426987 235.80499999999992A4.04 4.04 0 1 0 1130.0318909426987 227.72499999999994M1130.0318909426987 176.00699999999992A20.606 20.606 0 1 0 1130.0318909426987 217.2189999999999A20.606 20.606 0 1 0 1130.0318909426987 176.00699999999992M1130.0318909426987 157.4209999999999A4.04 4.04 0 1 0 1130.0318909426987 165.50199999999992A4.04 4.04 0 1 0 1130.0318909426987 157.42199999999994M1130.0318909426987 105.70499999999996A20.606 20.606 0 1 0 1130.0318909426987 146.91599999999997A20.606 20.606 0 1 0 1130.0318909426987 105.70399999999998M1094.8798909426987 140.855A20.606 20.606 0 1 0 1094.8798909426987 182.068A20.606 20.606 0 1 0 1094.8798909426987 140.85600000000002M1060.5068909426986 317.7289999999999A20.72 20.72 0 1 0 1060.5068909426986 359.1669999999999A20.72 20.72 0 1 0 1060.5068909426986 317.7289999999999M1060.5068909426986 299.04099999999994A4.063 4.063 0 1 0 1060.5068909426986 307.16599999999994A4.063 4.063 0 1 0 1060.5068909426986 299.04099999999994 "></path><path fill="#48a4d9" d="M1095.8518909426987 263.6959999999999A4.063 4.063 0 1 0 1095.8518909426987 271.8209999999999A4.063 4.063 0 1 0 1095.8518909426987 263.6959999999999M1095.8518909426987 334.3849999999999A4.063 4.063 0 1 0 1095.8518909426987 342.5099999999999A4.063 4.063 0 1 0 1095.8518909426987 334.3849999999999M1095.8518909426987 282.3839999999999A20.72 20.72 0 1 0 1095.8518909426987 323.82299999999987A20.72 20.72 0 1 0 1095.8518909426987 282.3839999999999M1060.5068909426986 247.0389999999999A20.72 20.72 0 1 0 1060.5068909426986 288.47799999999995A20.72 20.72 0 1 0 1060.5068909426986 247.0389999999999M1060.5068909426986 228.3509999999999A4.063 4.063 0 1 0 1060.5068909426986 236.4769999999999A4.063 4.063 0 1 0 1060.5068909426986 228.3509999999999M1095.851890942699 193.00699999999992A4.063 4.063 0 1 0 1095.851890942699 201.13199999999992A4.063 4.063 0 1 0 1095.851890942699 193.00699999999992M1060.5068909426986 176.34999999999994A20.72 20.72 0 1 0 1060.5068909426986 217.78899999999996A20.72 20.72 0 1 0 1060.5068909426986 176.34999999999994M1095.851890942699 211.69499999999996A20.72 20.72 0 1 0 1095.851890942699 253.13299999999995A20.72 20.72 0 1 0 1095.851890942699 211.69499999999996M1131.1958909426987 317.7289999999999A20.72 20.72 0 1 0 1131.1958909426987 359.1669999999999A20.72 20.72 0 1 0 1131.1958909426987 317.7289999999999M1131.1958909426987 299.04099999999994A4.063 4.063 0 1 0 1131.1958909426987 307.16599999999994A4.063 4.063 0 1 0 1131.1958909426987 299.04099999999994M1166.5408909426988 263.6959999999999A4.063 4.063 0 1 0 1166.5408909426988 271.8209999999999A4.063 4.063 0 1 0 1166.5408909426988 263.6959999999999M1166.5408909426988 334.3849999999999A4.063 4.063 0 1 0 1166.5408909426988 342.5099999999999A4.063 4.063 0 1 0 1166.5408909426988 334.3849999999999M1166.5408909426988 282.3839999999999A20.72 20.72 0 1 0 1166.5408909426988 323.82299999999987A20.72 20.72 0 1 0 1166.5408909426988 282.3839999999999M1131.1958909426987 247.0389999999999A20.72 20.72 0 1 0 1131.1958909426987 288.47799999999995A20.72 20.72 0 1 0 1131.1958909426987 247.0389999999999M1131.1958909426987 228.3509999999999A4.063 4.063 0 1 0 1131.1958909426987 236.4769999999999A4.063 4.063 0 1 0 1131.1958909426987 228.3509999999999M1166.5408909426988 193.00699999999992A4.063 4.063 0 1 0 1166.5408909426988 201.13199999999992A4.063 4.063 0 1 0 1166.5408909426988 193.00699999999992M1131.1958909426987 176.34999999999994A20.72 20.72 0 1 0 1131.1958909426987 217.78899999999996A20.72 20.72 0 1 0 1131.1958909426987 176.34999999999994M1201.8848909426988 317.7289999999999A20.72 20.72 0 1 0 1201.8848909426988 359.1669999999999A20.72 20.72 0 1 0 1201.8848909426988 317.7289999999999M1201.8848909426988 299.04099999999994A4.063 4.063 0 1 0 1201.8848909426988 307.16599999999994A4.063 4.063 0 1 0 1201.8848909426988 299.04099999999994M1201.8848909426988 247.03899999999996A20.72 20.72 0 1 0 1201.8848909426988 288.47799999999995A20.72 20.72 0 1 0 1201.8848909426988 247.03899999999996M1201.8848909426988 228.35099999999997A4.063 4.063 0 1 0 1201.8848909426988 236.47699999999995A4.063 4.063 0 1 0 1201.8848909426988 228.35099999999997M1201.8848909426988 176.35A20.72 20.72 0 1 0 1201.8848909426988 217.78900000000002A20.72 20.72 0 1 0 1201.8848909426988 176.35M1166.5408909426988 211.69499999999996A20.72 20.72 0 1 0 1166.5408909426988 253.13299999999995A20.72 20.72 0 1 0 1166.5408909426988 211.69499999999996 "></path><g transform="translate(400.74 399.53)"><filter id="a" width="140%" height="140%" x="-20%" y="-20%"><feGaussianBlur in="SourceAlpha"></feGaussianBlur><feOffset result="oBlur"></feOffset><feFlood flood-color="#f75cff" flood-opacity="1"></feFlood><feComposite in2="oBlur" operator="in"></feComposite><feMerge><feMergeNode></feMergeNode><feMergeNode in="SourceGraphic"></feMergeNode></feMerge></filter><g filter="url(#a)"><rect width="560" height="142.38" x="345.60889094269874" y="-290.80500000000006" fill="none" rx="0" ry="0" transform="translate(-.24)"></rect><path fill="#001f3f" d="M355.72889094269874 -180.5250000000001V-267.2150000000001H430.69889094269877V-246.4250000000001H383.57889094269876V-234.4550000000001H423.8988909426987V-214.5450000000001H383.57889094269876V-201.31500000000008H431.58889094269875V-180.5250000000001ZM488.91889094269874 -180.53500000000008H462.57889094269876L437.3788909426987 -247.06500000000008H464.34889094269874L476.5688909426988 -205.6150000000001H477.44889094269877L489.66889094269874 -247.0650000000001H514.3688909426987ZM556.3288909426988 -248.5750000000001Q574.5988909426987 -248.5750000000001 584.2388909426987 -240.0050000000001Q593.8688909426987 -231.4450000000001 593.8688909426987 -213.8050000000001V-209.5150000000001H543.9788909426987Q543.9788909426987 -202.3350000000001 547.1888909426987 -198.6850000000001Q550.3988909426987 -195.0250000000001 557.3288909426988 -195.0250000000001Q563.6288909426987 -195.0250000000001 566.5988909426987 -197.6750000000001Q569.5588909426988 -200.31500000000008 569.5588909426988 -204.72500000000008H593.8688909426987Q593.8688909426987 -192.6350000000001 584.6788909426987 -185.8250000000001Q575.4788909426987 -179.0250000000001 557.8388909426988 -179.0250000000001Q539.3188909426988 -179.0250000000001 529.1088909426987 -187.6550000000001T518.8988909426987 -213.8050000000001Q518.8988909426987 -230.9350000000001 528.8588909426987 -239.7550000000001Q538.8088909426988 -248.5750000000001 556.3288909426988 -248.5750000000001M557.3288909426988 -232.5750000000001Q545.4888909426987 -232.5750000000001 544.0988909426987 -221.3650000000001H568.5488909426988Q568.5488909426988 -226.5250000000001 565.5888909426988 -229.5550000000001Q562.6288909426987 -232.5750000000001 557.3288909426988 -232.5750000000001M651.8188909426988 -248.5750000000001Q663.4188909426987 -248.5750000000001 669.2088909426988 -242.1550000000001Q675.0088909426987 -235.72500000000008 675.0088909426987 -223.62500000000009V-180.53500000000008H649.9288909426987V-220.6050000000001Q649.9288909426987 -224.8850000000001 647.7288909426987 -227.4750000000001Q645.5188909426987 -230.0550000000001 641.4888909426987 -230.0550000000001Q636.8288909426988 -230.0550000000001 633.9288909426987 -227.03500000000008Q631.0288909426987 -224.0050000000001 631.0288909426987 -219.59500000000008V-180.53500000000008H605.9588909426988V-247.0650000000001H626.4988909426987L628.1388909426987 -236.9850000000001Q632.0388909426988 -242.2750000000001 638.4088909426987 -245.4250000000001Q644.7688909426987 -248.5750000000001 651.8188909426988 -248.5750000000001M720.2488909426987 -247.06500000000008H734.3588909426987V-230.0550000000001H720.2488909426987V-204.72500000000008Q720.2488909426987 -200.1950000000001 721.7588909426987 -198.1150000000001Q723.2788909426987 -196.03500000000008 727.3088909426988 -196.03500000000008H734.3588909426987V-181.2950000000001Q731.3388909426988 -180.28500000000008 726.5488909426988 -179.6550000000001T718.2388909426987 -179.0250000000001Q707.1488909426987 -179.0250000000001 701.1588909426987 -183.0550000000001Q695.1788909426987 -187.0850000000001 695.1788909426987 -196.7950000000001V-230.0550000000001H685.8488909426987V-247.06500000000008H696.1888909426988L701.5988909426987 -267.2250000000001H720.2488909426987ZM771.9088909426987 -254.87500000000009H746.8388909426988V-271.8850000000001H771.9088909426987ZM771.9088909426987 -180.53500000000008H746.8388909426988V-247.06500000000008H771.9088909426987ZM814.9988909426987 -273.3950000000001Q817.7788909426988 -273.3950000000001 821.9288909426988 -272.7050000000001Q826.0888909426988 -272.0150000000001 828.6088909426987 -271.1350000000001V-256.3850000000001H822.8188909426988Q818.7788909426988 -256.3850000000001 817.2688909426988 -254.87500000000009T815.7588909426988 -249.7150000000001V-247.06500000000008H828.6088909426987V-230.0550000000001H815.7588909426987V-180.53500000000008H790.6888909426988V-230.0550000000001H781.3588909426987V-247.06500000000008H790.6888909426988V-249.8350000000001Q790.6888909426988 -262.6850000000001 796.9888909426987 -268.0450000000001Q803.2888909426988 -273.3950000000001 814.9988909426987 -273.3950000000001M882.6688909426987 -182.5450000000001Q877.4988909426987 -168.5550000000001 869.9988909426987 -161.3150000000001Q862.5088909426987 -154.0650000000001 849.0188909426988 -154.0650000000001Q840.8288909426988 -154.0650000000001 834.5288909426988 -156.3350000000001V-171.3250000000001H844.6088909426987Q854.0588909426988 -171.3250000000001 855.8288909426988 -180.5250000000001L829.3688909426987 -247.0550000000001H856.3288909426988L869.0588909426988 -202.8250000000001H869.9388909426987L881.6588909426987 -247.0550000000001H906.3488909426987Z "></path></g></g></g><rect width="561" height="359" x="719.5" y="0" id="space-saver" fill="transparent" stroke="transparent"></rect></g></svg>